<svg width="193" height="55" viewBox="0 0 193 55" fill="none" xmlns="http://www.w3.org/2000/svg">
<path d="M132.5 0L134.247 4.75345L139 6.5L134.247 8.24655L132.5 13L130.753 8.24655L126 6.5L130.753 4.75345L132.5 0Z" fill="#E21F4D"/>
<g filter="url(#filter0_d_2546_21)">
<path d="M13.97 11.59C22.16 11.59 28.775 18.61 28.775 27.34C28.775 36.025 22.16 43 13.97 43L4.07 42.955V11.545L13.97 11.59ZM13.745 37.105C18.785 37.105 22.88 32.695 22.88 27.34C22.88 21.985 18.785 17.62 13.745 17.62L9.875 17.665V37.105H13.745ZM49.9827 35.125C49.5777 35.125 36.3477 35.125 36.3477 35.125H36.3027C37.0227 36.655 38.5527 37.78 40.3077 37.78C41.5227 37.78 42.6027 37.24 43.4127 36.43H43.4577L48.7677 38.41V38.455C48.3627 39.175 47.8227 39.85 47.2377 40.435C45.4827 42.28 43.0077 43.405 40.3077 43.405C34.9077 43.405 30.4977 38.815 30.4977 33.145C30.4977 27.52 34.9077 22.93 40.3077 22.93C45.7527 22.93 50.1627 27.52 50.1627 33.145C50.1627 33.82 50.1177 34.495 49.9827 35.125ZM36.3027 31.165L44.2677 31.12C43.5477 29.59 42.0627 28.42 40.3077 28.42C38.5077 28.42 36.9777 29.59 36.3027 31.165ZM57.928 33.235V43H52.798V23.29H57.928C57.928 23.29 57.928 24.505 57.928 24.865C59.008 23.875 60.583 23.38 62.068 23.38C67.198 23.38 71.383 27.79 71.383 33.235V43H66.163V33.235C66.163 30.805 64.318 28.735 62.068 28.735C59.773 28.735 57.928 30.805 57.928 33.235ZM85.6177 37.87V43L80.3077 43.045C77.1127 43.045 74.5477 40.525 74.5477 37.465C74.5477 36.655 74.5477 17.89 74.5477 17.845H79.7677L79.8127 23.425H85.6177V28.465H79.8127V36.565C79.8127 37.285 80.3977 37.87 81.1627 37.87H85.6177ZM88.6134 43.045V23.335H93.8784V43.045H88.6134ZM91.2234 21.13C89.6484 21.13 88.3884 19.825 88.3884 18.16C88.3884 16.54 89.6484 15.19 91.2234 15.19C92.7984 15.19 94.1034 16.54 94.1034 18.16C94.1034 19.825 92.7984 21.13 91.2234 21.13ZM108.828 31.75C110.268 32.245 111.528 32.965 112.383 33.865C114.768 36.34 114.138 39.76 111.258 41.65C108.153 43.9 102.618 43.9 99.5132 41.65C97.8482 40.525 96.9482 38.95 96.9482 37.285H102.933C102.933 38.005 103.923 38.77 105.408 38.77C107.883 38.725 108.873 36.7 106.443 35.935C106.398 35.935 101.988 34.405 101.943 34.405C100.503 33.955 99.2882 33.235 98.3882 32.29C96.0032 29.815 96.6332 26.395 99.5132 24.505C102.618 22.255 108.153 22.255 111.258 24.505C112.923 25.63 113.868 27.205 113.868 28.87H107.838C107.793 27.88 106.398 27.385 105.408 27.385C103.383 27.385 101.943 28.87 103.698 29.95C103.833 30.085 108.558 31.66 108.828 31.75ZM127.717 37.87V43L122.407 43.045C119.212 43.045 116.647 40.525 116.647 37.465C116.647 36.655 116.647 17.89 116.647 17.845H121.867L121.912 23.425H127.717V28.465H121.912V36.565C121.912 37.285 122.497 37.87 123.262 37.87H127.717Z" fill="#3F3F3F"/>
<path d="M145.788 11.545L154.338 43H148.353L146.193 35.17H137.058L134.943 43H128.958L137.373 11.545H145.788ZM138.543 29.68H144.708L141.648 17.845L138.543 29.68ZM165.472 23.29C166.957 23.29 168.352 23.695 169.612 24.37C170.557 24.865 171.412 25.54 172.177 26.35C173.842 24.505 176.272 23.335 178.927 23.335C179.692 23.335 180.412 23.425 181.132 23.605C185.182 24.64 188.197 28.51 188.197 33.19V43H182.977V33.145C182.977 30.715 181.132 28.645 178.837 28.645C176.992 28.645 175.417 30.085 174.877 31.885C174.787 32.245 174.742 32.65 174.742 33.055C174.742 33.055 174.742 38.635 174.742 43C172.942 43 169.567 43 169.567 43V33.19C169.567 32.875 169.522 32.515 169.432 32.2C169.027 30.265 167.407 28.735 165.427 28.735C163.132 28.735 161.287 30.805 161.287 33.19V43H156.157V23.245H161.287C161.287 23.245 161.287 24.46 161.287 24.82C162.502 23.785 163.987 23.29 165.472 23.29Z" fill="#E21F4D"/>
</g>
<defs>
<filter id="filter0_d_2546_21" x="0.0699997" y="11.5449" width="192.127" height="40.355" filterUnits="userSpaceOnUse" color-interpolation-filters="sRGB">
<feFlood flood-opacity="0" result="BackgroundImageFix"/>
<feColorMatrix in="SourceAlpha" type="matrix" values="0 0 0 0 0 0 0 0 0 0 0 0 0 0 0 0 0 0 127 0" result="hardAlpha"/>
<feOffset dy="4"/>
<feGaussianBlur stdDeviation="2"/>
<feComposite in2="hardAlpha" operator="out"/>
<feColorMatrix type="matrix" values="0 0 0 0 0 0 0 0 0 0 0 0 0 0 0 0 0 0 0.25 0"/>
<feBlend mode="normal" in2="BackgroundImageFix" result="effect1_dropShadow_2546_21"/>
<feBlend mode="normal" in="SourceGraphic" in2="effect1_dropShadow_2546_21" result="shape"/>
</filter>
</defs>
</svg>
